#N canvas 490 193 450 300 10;
#X obj 5 -994 netsend;
#X msg -74 -1157 disconnect;
#X floatatom 5 -967 0 0 0 0 - - -;
#X floatatom 224 -984 0 0 0 0 - - -;
#X obj 122 -984 print tcp;
#X obj 122 -1014 netreceive 3001;
#X msg 14 -1016 send img;
#X msg 29 -1070 send face;
#X msg 5 -1156 connect 10.0.0.19 3000;
#X connect 0 0 2 0;
#X connect 1 0 0 0;
#X connect 5 0 4 0;
#X connect 5 1 3 0;
#X connect 6 0 0 0;
#X connect 7 0 0 0;
#X connect 8 0 0 0;
